<svg version="1.0" xmlns="http://www.w3.org/2000/svg" width="206.600000pt" height="137.586808pt" viewBox="0 0 940.000000 626.000000" preserveAspectRatio="xMidYMid meet"><g transform="translate(0.000000,626.000000) scale(0.100000,-0.100000)" fill="#000000" stroke="none"><path d="M1860 5220 l0 -770 770 0 770 0 0 770 0 770 -770 0 -770 0 0 -770z m1490 0 l0 -720 -720 0 -720 0 0 720 0 720 720 0 720 0 0 -720z"></path><path d="M4623 5331 c-72 -34 -101 -107 -68 -171 18 -35 49 -53 164 -94 90 -33 114 -54 92 -80 -30 -36 -132 -1 -183 63 -23 29 -23 29 -60 14 -21 -8 -38 -20 -37 -27 0 -6 10 -38 23 -71 20 -52 27 -60 51 -63 15 -2 31 1 35 7 4 8 19 7 49 -4 121 -42 247 16 258 119 5 43 3 48 -33 84 -30 29 -62 46 -134 71 -100 34 -128 54 -109 78 27 31 107 7 151 -45 24 -29 25 -29 61 -15 42 17 43 20 22 91 l-16 52 -52 -1 c-29 0 -79 2 -112 6 -48 4 -68 2 -102 -14z"></path><path d="M5146 5340 c-16 -5 -46 -26 -67 -46 -130 -127 -66 -386 100 -402 35 -3 61 1 95 16 l47 21 -3 -72 -3 -72 -32 -3 c-31 -3 -33 -6 -33 -43 l0 -39 135 0 135 0 0 39 c0 36 -3 40 -27 43 l-28 3 -3 278 -2 277 -50 0 c-38 0 -52 -4 -59 -19 -10 -18 -12 -18 -57 5 -49 25 -97 29 -148 14z m149 -106 c17 -13 21 -29 23 -109 l4 -94 -31 -15 c-47 -25 -76 -20 -106 16 -25 29 -27 38 -23 101 3 61 7 72 31 93 32 27 73 30 102 8z"></path><path d="M6285 5337 c-57 -19 -91 -44 -104 -76 -23 -55 21 -104 78 -86 12 3 31 25 43 48 24 48 34 57 65 57 32 0 53 -27 53 -69 l0 -38 -72 -12 c-143 -24 -193 -62 -193 -146 0 -60 19 -89 72 -111 49 -21 95 -17 157 14 47 25 58 27 68 15 29 -36 91 -51 146 -37 18 5 22 13 22 50 0 39 -2 44 -23 44 -41 0 -47 17 -47 141 0 65 -4 129 -9 142 -23 61 -161 95 -256 64z m135 -277 c0 -34 -4 -42 -30 -55 -16 -8 -38 -15 -49 -15 -20 0 -51 24 -51 40 0 19 38 52 70 60 59 13 60 13 60 -30z"></path><path d="M6775 5335 c-22 -8 -52 -16 -67 -19 -25 -6 -28 -11 -28 -46 0 -38 2 -40 30 -40 l31 0 -3 -122 -3 -123 -27 -3 c-25 -3 -28 -7 -28 -43 l0 -39 135 0 135 0 0 39 c0 37 -2 40 -32 43 l-33 3 -3 104 c-2 77 1 107 10 113 7 4 36 5 64 2 44 -5 55 -3 73 15 31 31 28 84 -5 110 -41 32 -79 25 -131 -22 l-23 -20 0 31 c0 29 -3 32 -27 31 -16 -1 -46 -7 -68 -14z"></path><path d="M7250 5341 c-154 -47 -216 -214 -128 -345 82 -124 253 -140 373 -34 l47 41 -31 30 -30 30 -40 -27 c-45 -32 -108 -44 -140 -26 -28 14 -61 68 -61 98 0 22 1 22 145 22 l145 0 0 33 c-1 75 -64 156 -138 177 -42 11 -105 12 -142 1z m117 -83 c13 -12 23 -30 23 -40 0 -16 -9 -18 -75 -18 -82 0 -87 7 -42 58 26 28 64 28 94 0z"></path><path d="M5550 5301 c0 -37 2 -40 33 -43 l32 -3 5 -146 c6 -162 11 -177 77 -205 49 -21 95 -17 157 14 l56 29 0 -24 c0 -23 2 -23 95 -23 l95 0 0 40 c0 38 -2 40 -30 40 l-30 0 0 180 0 180 -105 0 -105 0 0 -40 c0 -37 2 -40 29 -40 37 0 41 -12 41 -120 l0 -89 -37 -26 c-38 -25 -59 -30 -87 -19 -14 5 -16 30 -16 170 l0 164 -105 0 -105 0 0 -39z"></path><path d="M720 3030 l0 -770 1585 0 1585 0 0 770 0 770 -1585 0 -1585 0 0 -770z m3120 0 l0 -720 -1535 0 -1535 0 0 720 0 720 1535 0 1535 0 0 -720z"></path><path d="M5180 3436 c-20 -8 -55 -17 -78 -21 -41 -7 -42 -8 -42 -46 0 -38 1 -39 35 -39 l35 0 0 -265 0 -265 42 0 c23 0 49 7 58 15 15 14 21 13 61 -5 55 -25 102 -25 155 -1 77 35 116 107 116 218 0 87 -26 150 -80 191 -30 23 -45 27 -96 26 -38 0 -73 -7 -93 -17 l-33 -18 0 121 c0 118 0 120 -22 119 -13 0 -39 -6 -58 -13z m208 -321 c41 -51 36 -161 -9 -206 -25 -25 -71 -24 -95 2 -15 17 -20 40 -22 109 -4 88 -4 88 25 104 43 23 78 20 101 -9z"></path><path d="M5750 3436 c-20 -8 -55 -17 -78 -21 -41 -7 -42 -8 -42 -46 0 -37 2 -39 30 -39 l30 0 -2 -222 -3 -223 -27 -3 c-25 -3 -28 -7 -28 -43 l0 -39 135 0 135 0 0 39 c0 37 -2 40 -32 43 l-33 3 -3 283 -2 282 -23 -1 c-12 0 -38 -6 -57 -13z"></path><path d="M7510 3263 c-8 -3 -24 -14 -36 -24 -19 -18 -23 -18 -68 -3 -100 34 -223 -2 -262 -78 -24 -46 -15 -122 19 -155 l25 -26 -39 -37 c-55 -52 -52 -90 11 -133 13 -9 19 -17 13 -17 -6 0 -25 -12 -42 -26 -54 -45 -38 -103 37 -136 98 -44 297 -31 373 23 59 42 76 115 37 164 -30 38 -66 51 -203 70 -66 10 -124 21 -129 26 -20 19 15 32 86 33 88 1 138 23 169 72 21 35 23 85 5 127 -7 14 -3 17 31 17 46 0 63 14 63 51 0 47 -40 70 -90 52z m-140 -113 c42 -42 13 -130 -42 -130 -29 0 -42 9 -57 37 -16 32 -14 57 10 87 25 31 61 34 89 6z m93 -409 c18 -18 -4 -44 -44 -54 -43 -12 -155 -3 -174 13 -19 16 -19 39 0 60 13 15 25 15 111 4 53 -7 101 -17 107 -23z"></path><path d="M4692 3236 c-100 -33 -153 -106 -154 -210 0 -100 36 -166 117 -209 32 -17 57 -22 125 -22 118 0 179 34 226 125 38 74 19 193 -40 258 -54 61 -183 88 -274 58z m150 -116 c29 -30 30 -33 26 -106 -3 -69 -6 -79 -31 -100 -36 -31 -78 -31 -114 0 -26 23 -28 29 -28 106 0 77 2 83 28 106 39 34 81 31 119 -6z"></path><path d="M6102 3236 c-100 -33 -153 -106 -154 -210 0 -100 36 -166 117 -209 32 -17 57 -22 125 -22 118 0 179 34 226 125 38 74 19 193 -40 258 -54 61 -183 88 -274 58z m150 -116 c29 -30 30 -33 26 -106 -3 -69 -6 -79 -31 -100 -36 -31 -78 -31 -114 0 -26 23 -28 29 -28 106 0 77 2 83 28 106 39 34 81 31 119 -6z"></path><path d="M6630 3239 c-14 -6 -46 -15 -72 -20 -47 -11 -48 -11 -48 -50 0 -38 1 -39 35 -39 l35 0 0 -106 c0 -117 -9 -144 -45 -144 -22 0 -25 -4 -25 -40 l0 -40 125 0 125 0 0 40 c0 33 -4 40 -19 40 -26 0 -31 18 -31 126 l0 94 44 22 c29 14 52 19 70 14 l27 -7 -3 -122 c-3 -118 -4 -122 -25 -125 -19 -3 -23 -10 -23 -43 l0 -39 130 0 130 0 0 39 c0 37 -2 40 -32 43 l-33 3 -5 147 c-5 137 -6 148 -29 172 -49 52 -132 58 -211 17 -51 -26 -50 -26 -50 4 0 28 -24 32 -70 14z"></path><path d="M1074 1595 c-4 -9 143 -231 376 -570 l382 -555 1094 0 c953 0 1095 2 1100 15 4 9 -143 231 -376 570 l-382 555 -1094 0 c-953 0 -1095 -2 -1100 -15z m2521 -546 c193 -281 352 -515 353 -520 2 -5 -404 -9 -1045 -9 l-1048 1 -350 510 c-192 281 -351 515 -353 520 -2 5 404 9 1045 9 l1048 -1 350 -510z"></path><path d="M5070 1336 c-20 -8 -55 -17 -78 -21 -41 -7 -42 -8 -42 -46 0 -37 2 -39 30 -39 l30 0 -2 -222 -3 -223 -27 -3 c-25 -3 -28 -7 -28 -43 l0 -39 125 0 125 0 0 39 c0 33 -4 40 -22 43 -22 3 -23 8 -26 110 l-3 108 33 20 c38 23 81 26 97 6 8 -9 11 -52 9 -127 -3 -110 -4 -114 -25 -117 -19 -3 -23 -10 -23 -43 l0 -39 130 0 130 0 0 39 c0 37 -2 40 -32 43 l-33 3 -5 140 c-4 114 -9 146 -23 169 -39 59 -133 71 -216 27 l-41 -21 0 125 c0 123 0 125 -22 124 -13 0 -39 -6 -58 -13z"></path><path d="M7100 1336 c-20 -8 -55 -17 -78 -21 -41 -7 -42 -8 -42 -46 0 -38 1 -39 35 -39 l35 0 0 -265 0 -265 42 0 c23 0 49 7 58 15 15 14 21 13 61 -5 55 -25 102 -25 155 -1 77 35 116 107 116 218 0 87 -26 150 -80 191 -30 23 -45 27 -96 26 -38 0 -73 -7 -93 -17 l-33 -18 0 121 c0 118 0 120 -22 119 -13 0 -39 -6 -58 -13z m208 -321 c41 -51 36 -161 -9 -206 -25 -25 -71 -24 -95 2 -15 17 -20 40 -22 109 -4 88 -4 88 25 104 43 23 78 20 101 -9z"></path><path d="M8810 1336 c-20 -8 -55 -17 -78 -21 -41 -7 -42 -8 -42 -46 0 -37 2 -39 30 -39 30 0 30 -1 30 -54 l0 -55 -35 15 c-93 38 -197 -4 -248 -101 -30 -57 -30 -174 0 -230 26 -48 68 -90 106 -104 49 -19 93 -13 180 24 13 6 17 2 17 -15 0 -22 2 -23 68 -17 37 4 79 7 95 7 25 0 27 3 27 39 0 37 -2 40 -32 43 l-33 3 -3 283 -2 282 -23 -1 c-12 0 -38 -6 -57 -13z m-82 -302 c20 -14 22 -23 22 -108 0 -102 -5 -111 -57 -122 -40 -8 -72 10 -89 51 -26 64 -10 159 33 184 26 15 65 13 91 -5z"></path><path d="M8195 1315 c-16 -15 -25 -36 -25 -55 0 -36 38 -80 69 -80 35 0 69 22 82 51 32 78 -67 144 -126 84z"></path><path d="M4635 1135 c-22 -8 -52 -16 -67 -19 -25 -6 -28 -11 -28 -46 0 -38 2 -40 30 -40 l31 0 -3 -122 -3 -123 -27 -3 c-25 -3 -28 -7 -28 -43 l0 -39 135 0 135 0 0 39 c0 37 -2 40 -32 43 l-33 3 -3 104 c-2 77 1 107 10 113 7 4 36 5 64 2 44 -5 55 -3 73 15 31 31 28 84 -5 110 -41 32 -79 25 -131 -22 l-23 -20 0 31 c0 29 -3 32 -27 31 -16 -1 -46 -7 -68 -14z"></path><path d="M5712 1136 c-100 -33 -153 -106 -154 -210 0 -100 36 -166 117 -209 32 -17 57 -22 125 -22 118 0 179 34 226 125 38 74 19 193 -40 258 -54 61 -183 88 -274 58z m150 -116 c29 -30 30 -33 26 -106 -3 -69 -6 -79 -31 -100 -36 -31 -78 -31 -114 0 -26 23 -28 29 -28 106 0 77 2 83 28 106 39 34 81 31 119 -6z"></path><path d="M6250 1140 c-8 -5 -41 -15 -72 -21 l-58 -12 0 -38 c0 -38 1 -39 35 -39 l36 0 -3 -122 -3 -123 -32 -3 c-31 -3 -33 -6 -33 -43 l0 -39 130 0 130 0 0 39 c0 33 -4 40 -22 43 -22 3 -23 8 -26 110 l-3 108 33 20 c38 23 81 26 97 6 8 -9 11 -52 9 -127 -3 -110 -4 -114 -25 -117 -19 -3 -23 -10 -23 -43 l0 -39 120 0 120 0 0 39 c0 33 -4 40 -22 43 -22 3 -23 8 -26 110 l-3 108 33 20 c42 26 84 26 98 1 11 -21 14 -199 4 -225 -3 -9 -15 -16 -25 -16 -15 0 -19 -7 -19 -40 l0 -40 125 0 125 0 0 39 c0 36 -3 40 -27 43 l-28 3 -5 140 c-7 157 -15 181 -77 210 -47 23 -119 15 -180 -20 -45 -25 -46 -25 -60 -6 -33 48 -140 51 -220 7 l-43 -25 0 30 c0 23 -4 29 -22 29 -13 0 -30 -5 -38 -10z"></path><path d="M7712 1136 c-100 -33 -153 -106 -154 -210 0 -100 36 -166 117 -209 32 -17 57 -22 125 -22 118 0 179 34 226 125 38 74 19 193 -40 258 -54 61 -183 88 -274 58z m150 -116 c29 -30 30 -33 26 -106 -3 -69 -6 -79 -31 -100 -36 -31 -78 -31 -114 0 -26 23 -28 29 -28 106 0 77 2 83 28 106 39 34 81 31 119 -6z"></path><path d="M8245 1135 c-16 -8 -54 -17 -82 -20 l-53 -7 0 -39 c0 -38 1 -39 35 -39 l36 0 -3 -122 -3 -123 -32 -3 c-31 -3 -33 -6 -33 -43 l0 -39 135 0 135 0 0 39 c0 36 -3 40 -27 43 l-28 3 -3 183 c-2 181 -3 182 -25 181 -12 0 -35 -7 -52 -14z"></path></g></svg>